<?xml version="1.0" standalone="no"?>
<!DOCTYPE svg PUBLIC "-//W3C//DTD SVG 20010904//EN"
 "http://www.w3.org/TR/2001/REC-SVG-20010904/DTD/svg10.dtd">
<svg version="1.0" xmlns="http://www.w3.org/2000/svg"
 width="2000.000000pt" height="2000.000000pt" viewBox="0 0 2000.000000 2000.000000"
 preserveAspectRatio="xMidYMid meet">
<metadata>
Created by potrace 1.14, written by Peter Selinger 2001-2017
</metadata>
<g transform="translate(0.000000,2000.000000) scale(0.100000,-0.100000)"
fill="#000000" stroke="none">
<path d="M8690 15338 c-1 -30 -1 -2590 0 -2604 0 -7 72 -10 218 -10 l217 1 0
1098 c0 968 2 1097 15 1098 8 0 2226 1 4927 2 l4913 2 0 -4927 0 -4928 -232 0
c-3047 -3 -9612 1 -9616 5 -3 3 -6 497 -7 1098 l0 1092 -217 1 -218 0 0 -75
c-1 -119 -1 -2524 -1 -2543 1 -17 263 -18 5365 -18 l5363 0 0 5365 0 5365
-5364 0 -5363 0 0 -22z"/>
<path d="M7298 12401 c-156 -51 -285 -193 -319 -352 -10 -48 -8 -162 4 -216 3
-11 17 -46 32 -75 95 -195 310 -299 518 -251 153 35 284 155 335 308 22 64 27
175 11 247 -33 146 -162 287 -310 336 -76 26 -198 27 -271 3z"/>
<path d="M11379 11256 c-2 -2 -35 -6 -74 -9 -300 -23 -581 -153 -796 -367
-206 -204 -331 -472 -368 -790 -11 -94 -7 -322 8 -415 53 -347 233 -654 491
-837 123 -87 301 -166 415 -184 22 -3 43 -8 47 -10 15 -10 132 -18 243 -17
299 1 524 99 719 311 21 23 44 42 50 42 13 0 14 -580 1 -620 -13 -42 -43 -77
-82 -96 -36 -17 -78 -19 -703 -20 -366 -1 -668 -2 -672 -3 -5 -1 -8 -152 -8
-336 l0 -336 833 3 c772 4 837 5 897 22 269 76 435 243 506 511 18 66 19 122
19 980 0 501 -3 942 -8 980 -27 247 -111 474 -245 665 -104 149 -296 309 -467
389 -165 78 -272 107 -477 130 -70 8 -322 13 -329 7z m285 -701 c45 -9 126
-45 171 -76 177 -119 279 -344 270 -594 -4 -121 -19 -184 -67 -285 -113 -236
-365 -357 -638 -304 -204 39 -358 179 -431 391 -26 75 -34 137 -33 253 2 311
179 554 449 616 59 13 215 13 279 -1z"/>
<path d="M14609 11255 c-2 -2 -31 -6 -64 -10 -78 -9 -232 -47 -318 -80 -225
-84 -450 -251 -594 -440 -21 -27 -41 -51 -45 -53 -5 -2 -8 -8 -8 -14 0 -5 -13
-28 -29 -51 -91 -133 -161 -339 -187 -547 -14 -117 -5 -336 20 -450 3 -14 8
-38 12 -55 23 -113 96 -277 183 -410 193 -296 534 -518 889 -580 241 -42 493
-33 702 25 490 135 855 513 969 1000 25 110 35 381 18 511 -26 206 -118 428
-250 608 -49 66 -184 204 -247 252 -25 18 -47 36 -50 39 -3 3 -35 24 -71 47
-145 91 -333 163 -489 188 -25 4 -54 9 -65 12 -25 6 -371 13 -376 8z m306
-696 c210 -49 377 -225 440 -461 23 -84 26 -272 8 -363 -47 -230 -206 -420
-404 -484 -58 -19 -79 -22 -174 -25 -178 -7 -319 47 -440 168 -81 81 -123 149
-158 256 -50 150 -53 339 -7 480 50 153 121 254 237 337 136 97 325 132 498
92z"/>
<path d="M3835 11183 c4 -10 60 -178 125 -373 512 -1528 632 -1881 654 -1920
85 -149 231 -261 416 -319 333 -103 728 40 874 318 27 52 273 756 301 861 2 8
106 319 230 690 125 371 228 680 230 685 1 6 7 23 13 38 7 16 12 30 12 33 0 2
-190 3 -422 2 l-421 -3 -102 -355 c-56 -195 -137 -476 -180 -625 -43 -148 -81
-283 -85 -300 -7 -27 -152 -533 -166 -578 -3 -10 -17 -23 -31 -28 -21 -8 -30
-6 -48 11 -13 12 -25 33 -29 48 -6 28 -18 70 -86 312 -23 80 -45 159 -50 175
-4 17 -24 89 -44 160 -21 72 -43 153 -51 180 -7 28 -64 228 -125 445 -62 217
-115 404 -117 415 -3 11 -14 48 -25 83 l-20 62 -430 0 c-406 0 -430 -1 -423
-17z"/>
<path d="M7035 9898 l0 -1301 385 1 c212 0 390 1 395 1 7 1 10 426 10 1299 l0
1297 -395 3 -396 2 1 -1302z"/>
<path d="M9007 11183 c-197 -25 -347 -101 -457 -234 -41 -49 -99 -143 -105
-169 -1 -3 -11 -36 -23 -75 -12 -38 -25 -83 -28 -100 -4 -16 -8 -474 -9 -1017
-2 -903 -1 -988 14 -989 25 0 671 -1 724 0 l47 1 0 909 c0 620 3 919 11 938
13 35 45 70 84 91 25 13 77 16 330 18 165 1 302 2 305 3 4 1 5 593 1 626 -2
15 -778 13 -894 -2z"/>
</g>
</svg>
